<?xml version="1.0" standalone="no"?>
<!DOCTYPE svg PUBLIC "-//W3C//DTD SVG 20010904//EN"
 "http://www.w3.org/TR/2001/REC-SVG-20010904/DTD/svg10.dtd">
<svg version="1.0" xmlns="http://www.w3.org/2000/svg"
 width="700.000000pt" height="700.000000pt" viewBox="0 0 700.000000 700.000000"
 preserveAspectRatio="xMidYMid meet">
<metadata>
Created by potrace 1.14, written by Peter Selinger 2001-2017
</metadata>
<g transform="translate(0.000000,700.000000) scale(0.100000,-0.100000)"
fill="#000000" stroke="none">
<path d="M3287 4664 c-1 -1 -74 -5 -162 -8 -173 -8 -256 -12 -350 -20 -33 -3
-100 -8 -149 -12 -49 -3 -97 -7 -105 -9 -9 -1 -54 -6 -101 -10 -47 -4 -94 -9
-105 -11 -11 -2 -40 -6 -65 -9 -25 -3 -61 -7 -80 -10 -19 -2 -53 -7 -75 -10
-23 -3 -50 -7 -60 -9 -11 -2 -40 -7 -65 -11 -66 -10 -93 -14 -116 -19 -12 -2
-38 -7 -57 -10 -20 -3 -98 -20 -174 -36 -560 -125 -886 -296 -1000 -526 l-38
-78 0 -350 c0 -320 6 -480 20 -561 19 -110 47 -153 61 -92 17 79 79 180 164
267 103 105 151 138 360 251 98 53 463 177 613 208 23 5 53 12 67 16 85 21
433 84 555 99 99 13 123 16 175 21 30 3 71 8 90 10 19 2 71 7 115 10 44 4 91
8 105 10 180 26 879 27 1170 1 19 -2 76 -7 125 -11 50 -4 98 -9 108 -11 10 -1
53 -6 95 -10 42 -3 79 -7 82 -9 3 -2 34 -6 70 -9 36 -4 88 -11 115 -16 52 -10
106 -18 165 -26 19 -2 42 -6 50 -9 8 -2 31 -7 50 -10 19 -3 42 -8 50 -10 8 -2
31 -7 50 -10 60 -10 311 -74 395 -101 238 -75 460 -177 593 -270 109 -77 222
-199 265 -288 20 -42 39 -85 40 -96 4 -28 14 -35 31 -21 14 12 23 46 32 125 3
23 8 57 10 76 11 74 13 766 3 809 -24 106 -98 207 -219 298 -157 118 -497 248
-835 318 -44 9 -89 19 -100 21 -76 16 -187 35 -225 40 -25 2 -52 7 -60 9 -8 2
-37 7 -65 10 -27 3 -61 8 -75 10 -14 3 -47 7 -75 10 -27 4 -63 8 -80 10 -16 2
-57 6 -90 10 -33 3 -80 8 -105 11 -25 2 -74 6 -110 9 -36 3 -94 7 -130 10
-236 19 -450 28 -723 29 -126 1 -229 1 -230 0z"/>
<path d="M3108 3495 c-1 -1 -68 -6 -148 -9 -153 -8 -198 -10 -320 -21 -86 -7
-388 -44 -410 -50 -8 -2 -37 -6 -65 -10 -27 -3 -57 -8 -65 -10 -8 -2 -31 -7
-50 -10 -19 -3 -51 -10 -70 -15 -19 -5 -50 -12 -69 -15 -46 -8 -219 -53 -251
-66 -14 -5 -34 -11 -45 -13 -32 -7 -193 -70 -276 -110 -155 -72 -324 -205
-374 -292 -17 -30 -17 -33 10 -110 118 -345 236 -565 374 -701 106 -105 214
-168 366 -216 215 -67 428 -91 830 -92 341 0 442 14 579 81 95 46 139 95 216
238 45 85 69 103 141 112 83 10 136 -25 188 -126 67 -129 101 -166 200 -221
51 -29 175 -64 266 -76 74 -10 559 -10 675 0 338 29 554 89 725 202 195 130
328 344 482 779 45 126 48 121 -105 267 -26 25 -130 93 -192 126 -209 111
-578 223 -890 269 -19 3 -60 9 -90 14 -30 5 -79 12 -109 15 -30 4 -61 8 -70
10 -9 1 -51 6 -93 10 -43 3 -92 8 -110 11 -18 2 -78 6 -133 10 -55 3 -122 8
-150 10 -60 6 -962 14 -967 9z"/>
</g>
</svg>
